<svg width="29" height="20" viewBox="0 0 29 20" fill="none" xmlns="http://www.w3.org/2000/svg">
<g id="logo1.8d6cb038 1" clip-path="url(#clip0_314_1553)">
<path id="Vector" d="M16.4769 4.91602C16.9807 4.42045 17.2924 3.73661 17.2924 2.98106C17.2924 1.46795 16.0422 0.241211 14.5 0.241211C13.525 0.241211 12.6678 0.732311 12.1684 1.47526C12.0356 1.60565 0.919496 15.0486 0.815582 15.2032C0.311744 15.6987 0 16.3828 0 17.1379C0 18.6513 1.25028 19.878 2.79244 19.878C3.76741 19.878 4.6246 19.3871 5.12409 18.6439C5.2568 18.5136 16.3729 5.0704 16.4769 4.91602Z" fill="url(#paint0_linear_314_1553)"/>
<path id="Vector_2" d="M22.9088 11.2955C23.4141 10.7995 23.7265 10.1148 23.7265 9.35828C23.7265 7.84517 22.4762 6.61841 20.934 6.61841C19.9586 6.61841 19.101 7.10994 18.6015 7.85347C18.4678 7.98488 12.6294 15.0462 12.5248 15.2017C12.0195 15.6977 11.7072 16.3824 11.7072 17.1387C11.7072 18.6521 12.9574 19.8788 14.4996 19.8788C15.475 19.8788 16.3326 19.3873 16.8319 18.6437C16.9656 18.5125 22.8043 11.451 22.9088 11.2955Z" fill="url(#paint1_linear_314_1553)"/>
<path id="Vector_3" d="M28.9999 2.98106C28.9999 4.4944 27.7496 5.72092 26.2075 5.72092C24.6651 5.72092 23.415 4.4944 23.415 2.98106C23.415 1.46795 24.6651 0.241211 26.2075 0.241211C27.7496 0.241211 28.9999 1.46795 28.9999 2.98106Z" fill="url(#paint2_linear_314_1553)"/>
<path id="Vector_4" d="M5.58489 2.98106C5.58489 4.4944 4.3346 5.72092 2.79244 5.72092C1.25028 5.72092 0 4.4944 0 2.98106C0 1.46795 1.25028 0.241211 2.79244 0.241211C4.3346 0.241211 5.58489 1.46795 5.58489 2.98106Z" fill="url(#paint3_linear_314_1553)"/>
</g>
<defs>
<linearGradient id="paint0_linear_314_1553" x1="8.64622" y1="0.241211" x2="8.64622" y2="19.878" gradientUnits="userSpaceOnUse">
<stop stop-color="#2575FC"/>
<stop offset="0.996785" stop-color="#6A11CB"/>
</linearGradient>
<linearGradient id="paint1_linear_314_1553" x1="17.7168" y1="6.61841" x2="17.7168" y2="19.8788" gradientUnits="userSpaceOnUse">
<stop stop-color="#2575FC"/>
<stop offset="0.996785" stop-color="#6A11CB"/>
</linearGradient>
<linearGradient id="paint2_linear_314_1553" x1="26.2075" y1="0.241211" x2="26.2075" y2="5.72092" gradientUnits="userSpaceOnUse">
<stop stop-color="#2575FC"/>
<stop offset="0.996785" stop-color="#6A11CB"/>
</linearGradient>
<linearGradient id="paint3_linear_314_1553" x1="2.79244" y1="0.241211" x2="2.79244" y2="5.72092" gradientUnits="userSpaceOnUse">
<stop stop-color="#2575FC"/>
<stop offset="0.996785" stop-color="#6A11CB"/>
</linearGradient>
<clipPath id="clip0_314_1553">
<rect width="29" height="20" fill="white"/>
</clipPath>
</defs>
</svg>
